<?xml version="1.0" encoding="iso-8859-1"?>
<!-- Generator: Adobe Illustrator 19.0.0, SVG Export Plug-In . SVG Version: 6.00 Build 0)  -->
<svg version="1.1" id="Capa_1"
	xmlns="http://www.w3.org/2000/svg"
	xmlns:xlink="http://www.w3.org/1999/xlink" x="0px" y="0px"
	 viewBox="0 0 512 512" style="enable-background:new 0 0 512 512;" xml:space="preserve">
	<circle style="fill:#7AA0EA;" cx="254.211" cy="264.63" r="247.37"/>
	<path style="fill:#DAECF7;" d="M269.035,48.06c-4.766,0-8.63-3.863-8.63-8.63V23.207c0-3.278-2.667-5.946-5.945-5.946
	c-3.278,0-5.945,2.668-5.945,5.946V39.43c0,4.767-3.864,8.63-8.63,8.63s-8.63-3.863-8.63-8.63V23.207
	C231.253,10.41,241.663,0,254.459,0s23.206,10.41,23.206,23.207V39.43C277.665,44.196,273.801,48.06,269.035,48.06z"/>
	<path style="fill:#5F6AB9;" d="M425.774,48.643H83.337c-8.68,0-15.716,7.036-15.716,15.716V427.03
	C112.97,479.092,179.746,512,254.212,512c74.734,0,141.727-33.142,187.085-85.529V64.166
	C441.297,55.592,434.347,48.643,425.774,48.643z"/>
	<path style="fill:#524FA1;" d="M150.383,62.358c0-5.896,3.251-11.027,8.055-13.716H83.337c-8.68,0-15.716,7.036-15.716,15.716
	V427.03c22.766,26.136,50.935,47.439,82.762,62.181L150.383,62.358L150.383,62.358z"/>
	<path style="fill:#DAECF7;" d="M380.895,101.952h-252.68c-8.68,0-15.716,7.036-15.716,15.716c0,8.135,0,309.556,0,316.732
	c0,10.169,8.243,18.412,18.412,18.412h0.002H396.42V117.476C396.419,108.902,389.469,101.952,380.895,101.952z"/>
	<path style="fill:#B2D9ED;" d="M150.383,101.952h-22.167c-8.68,0-15.716,7.036-15.716,15.716c0,7.661,0,309.528,0,316.732
	c0,10.169,8.243,18.412,18.412,18.412h0.001h19.471L150.383,101.952L150.383,101.952z"/>
	<path style="fill:#FDCF49;" d="M254.459,130.529c-12.936,0-24.081-8.006-28.485-19.562h-41.047
	c-12.796,0-23.206-10.41-23.206-23.207s10.41-23.207,23.206-23.207h139.064c12.796,0,23.206,10.41,23.206,23.207
	s-10.41,23.207-23.206,23.207h-41.047C278.54,122.523,267.394,130.529,254.459,130.529z M184.927,81.814
	c-3.278,0-5.945,2.668-5.945,5.946s2.667,5.946,5.945,5.946h47.792c4.419,0,8.124,3.338,8.584,7.733
	c0.705,6.744,6.362,11.83,13.157,11.83c6.795,0,12.452-5.086,13.157-11.83c0.46-4.395,4.165-7.733,8.584-7.733h47.792
	c3.278,0,5.945-2.668,5.945-5.946s-2.667-5.946-5.945-5.946H184.927z"/>
	<path style="fill:#B2D9ED;" d="M303.656,82.006h-98.395c-3.833,0-6.94-3.107-6.94-6.94V42.918c0-3.833,3.107-6.94,6.94-6.94h98.395
	c3.833,0,6.94,3.107,6.94,6.94v32.148C310.597,78.899,307.489,82.006,303.656,82.006z"/>
	<path style="fill:#92D1EA;" d="M254.459,75.066V42.917c0-3.833,3.107-6.94,6.94-6.94h-56.138c-3.833,0-6.94,3.107-6.94,6.94v32.148
	c0,3.833,3.107,6.94,6.94,6.94h56.138C257.566,82.006,254.459,78.899,254.459,75.066z"/>
	<path style="fill:#B2D9ED;" d="M396.419,452.812L396.419,452.812H130.91c10.168,0,18.412-8.243,18.412-18.412v-22.606
	c0-2.768,2.244-5.011,5.011-5.011h254.769c3.164,0,5.729,2.565,5.729,5.729v21.889C414.83,444.569,406.587,452.812,396.419,452.812z
	"/>
	<path style="fill:#FB6467;" d="M275.559,225.162c-20.182,11.652-45.993,4.74-57.645-15.442s-4.742-45.986,15.44-57.638l0.009-0.005
	c20.182-11.652,45.988-4.737,57.64,15.445C302.655,187.703,295.741,213.51,275.559,225.162z"/>
	<path style="fill:#EF525A;" d="M246.204,193.386c-8.757-15.168-7.028-33.51,2.939-46.635c-5.405,0.684-10.766,2.43-15.78,5.325
	l-0.009,0.005c-20.182,11.652-27.092,37.456-15.44,57.638c11.652,20.182,37.463,27.094,57.645,15.442
	c5.016-2.896,9.209-6.667,12.505-11.007C271.713,216.223,254.961,208.553,246.204,193.386z"/>
	<g>
		<path style="fill:#FFFFFF;" d="M271.276,179.99h-8.187v-8.187c0-4.767-3.864-8.63-8.63-8.63c-4.766,0-8.63,3.863-8.63,8.63v8.187
		h-8.187c-4.766,0-8.63,3.863-8.63,8.63s3.864,8.63,8.63,8.63h8.187v8.188c0,4.767,3.864,8.63,8.63,8.63s8.63-3.863,8.63-8.63
		v-8.188h8.187c4.766,0,8.63-3.863,8.63-8.63S276.043,179.99,271.276,179.99z"/>
		<path style="fill:#FFFFFF;" d="M164.852,273.41c-4.766,0-8.634-3.863-8.634-8.63s3.86-8.63,8.626-8.63h0.008
		c4.766,0,8.63,3.863,8.63,8.63S169.619,273.41,164.852,273.41z"/>
		<path style="fill:#FFFFFF;" d="M341.053,273.41H196.021c-4.766,0-8.63-3.863-8.63-8.63s3.864-8.63,8.63-8.63h145.032
		c4.766,0,8.63,3.863,8.63,8.63S345.82,273.41,341.053,273.41z"/>
		<path style="fill:#FFFFFF;" d="M323.052,307.964H196.021c-4.766,0-8.63-3.863-8.63-8.63s3.864-8.63,8.63-8.63h127.031
		c4.766,0,8.63,3.863,8.63,8.63S327.819,307.964,323.052,307.964z"/>
		<path style="fill:#FFFFFF;" d="M313.463,342.518H196.021c-4.766,0-8.63-3.863-8.63-8.63s3.864-8.63,8.63-8.63h117.441
		c4.766,0,8.63,3.863,8.63,8.63S318.229,342.518,313.463,342.518z"/>
		<path style="fill:#FFFFFF;" d="M313.463,377.074H196.021c-4.766,0-8.63-3.863-8.63-8.63s3.864-8.63,8.63-8.63h117.441
		c4.766,0,8.63,3.863,8.63,8.63S318.229,377.074,313.463,377.074z"/>
		<path style="fill:#FFFFFF;" d="M164.852,342.518c-4.766,0-8.634-3.863-8.634-8.63s3.86-8.63,8.626-8.63h0.008
		c4.766,0,8.63,3.863,8.63,8.63S169.619,342.518,164.852,342.518z"/>
	</g>
	<rect x="436.48" y="146.986" transform="matrix(-0.866 -0.5 0.5 -0.866 782.2875 537.8891)" style="fill:#DAECF7;" width="53.459" height="34.299"/>
	<g>
		<rect x="432.075" y="163.423" transform="matrix(-0.866 -0.5 0.5 -0.866 770.2538 549.9189)" style="fill:#B2D9ED;" width="53.459" height="16.679"/>
		<rect x="438.851" y="138.143" transform="matrix(-0.866 -0.5 0.5 -0.866 758.1351 513.7314)" style="fill:#B2D9ED;" width="18.09" height="34.299"/>
	</g>
	<rect x="434.446" y="154.59" transform="matrix(-0.866 -0.5 0.5 -0.866 746.0964 525.7799)" style="fill:#92D1EA;" width="18.09" height="16.679"/>
	<path style="fill:#FB6467;" d="M491.792,114.656L491.792,114.656c-12.784-7.381-29.131-3.001-36.511,9.783l-7.272,12.595
	l46.294,26.728l7.272-12.595C508.955,138.384,504.575,122.037,491.792,114.656z"/>
	<path style="fill:#EF525A;" d="M471.098,133.293c5.435-9.414,15.084-14.87,25.188-15.379c-1.356-1.215-2.855-2.311-4.494-3.258l0,0
	c-12.784-7.381-29.13-3-36.511,9.783l-7.272,12.595l15.697,9.062L471.098,133.293z"/>
	<path style="fill:#FDB913;" d="M432.125,164.546l-85.343,147.818c2.46-4.261,7.909-5.721,12.17-3.261
	c4.261,2.46,5.721,7.909,3.261,12.17l85.342-147.818L432.125,164.546z"/>
	<path style="fill:#FDCF49;" d="M447.556,173.455l-85.343,147.818c2.46-4.261,7.909-5.721,12.17-3.261
	c4.261,2.46,5.721,7.909,3.261,12.17l85.342-147.818L447.556,173.455z"/>
	<path style="fill:#FDE57F;" d="M462.988,182.365l-85.342,147.818c2.46-4.261,7.909-5.721,12.17-3.261
	c4.261,2.46,5.721,7.909,3.261,12.17l85.343-147.818L462.988,182.365z"/>
	<path style="fill:#F4C3B8;" d="M389.816,326.921c-3.124-1.803-6.88-1.493-9.635,0.476c-0.264,0.189-0.609,0.219-0.89,0.057
	l-0.032-0.019c-0.31-0.179-0.499-0.519-0.466-0.875c0.314-3.359-1.295-6.751-4.408-8.549c-3.123-1.803-6.88-1.493-9.634,0.476
	c-0.275,0.196-0.643,0.2-0.935,0.031l0,0c-0.302-0.175-0.488-0.507-0.455-0.854c0.32-3.364-1.289-6.763-4.407-8.563
	c-4.261-2.46-9.71-1-12.17,3.261l-8.772,59.309c-0.666,4.503,4.522,7.498,8.089,4.67l46.977-37.251
	C395.537,334.831,394.077,329.382,389.816,326.921z"/>
	<path style="fill:#EAB5AC;" d="M346.914,375.696l16.602-57.464c-0.113-0.166-0.177-0.361-0.157-0.567
	c0.32-3.364-1.289-6.763-4.407-8.563c-4.261-2.46-9.71-1-12.17,3.261l-8.772,59.309c-0.666,4.503,4.522,7.498,8.089,4.67
	L346.914,375.696z"/>
	<path style="fill:#656582;" d="M355.413,350.871c-4.568-2.637-8.917-5.506-13.059-8.57l-4.344,29.372
	c-0.666,4.503,4.522,7.498,8.089,4.67l23.265-18.448C364.64,355.84,359.981,353.508,355.413,350.871z"/>
	<path style="fill:#585877;" d="M342.529,377.42c2.51,0.245,3.963-1.48,4.386-1.724l7.368-25.501
	c-4.153-2.452-8.132-5.087-11.927-7.895l-4.133,27.943c-0.028,0.937-0.665,2.306,0.148,4.168
	C339.105,376.094,340.735,377.245,342.529,377.42z"/>
	<path style="fill:#92D1EA;" d="M199.954,429.798c0-10.315,6.234-19.171,15.139-23.015h-60.76c-2.768,0-5.011,2.244-5.011,5.011
	V434.4c0,10.169-8.243,18.412-18.412,18.412h84.183C206.188,448.969,199.954,440.113,199.954,429.798z"/>
	<g></g>
	<g></g>
	<g></g>
	<g></g>
	<g></g>
	<g></g>
	<g></g>
	<g></g>
	<g></g>
	<g></g>
	<g></g>
	<g></g>
	<g></g>
	<g></g>
	<g></g>
</svg>
