<?xml version="1.0" encoding="iso-8859-1"?>
<!-- Generator: Adobe Illustrator 19.0.0, SVG Export Plug-In . SVG Version: 6.00 Build 0)  -->
<svg version="1.1" id="Capa_1" xmlns="http://www.w3.org/2000/svg" xmlns:xlink="http://www.w3.org/1999/xlink" x="0px" y="0px"
	 viewBox="0 0 512.002 512.002" style="enable-background:new 0 0 512.002 512.002;" xml:space="preserve">
<g>
	<g>
		<g>
			<path d="M194.59,382.711c-35.646,0-64.646,29-64.646,64.646s29,64.646,64.646,64.646c35.646,0,64.646-29,64.646-64.646
				S230.235,382.711,194.59,382.711z M194.59,473.215c-14.261,0-25.858-11.597-25.858-25.858c0-14.261,11.597-25.858,25.858-25.858
				c14.254,0,25.858,11.597,25.858,25.858C220.448,461.617,208.851,473.215,194.59,473.215z"/>
			<path d="M385.941,382.711c-35.646,0-64.646,29-64.646,64.646s29,64.646,64.646,64.646c35.646,0,64.646-29,64.646-64.646
				S421.587,382.711,385.941,382.711z M385.941,473.215c-14.261,0-25.858-11.597-25.858-25.858
				c0-14.261,11.597-25.858,25.858-25.858c14.261,0,25.858,11.597,25.858,25.858C411.799,461.617,400.202,473.215,385.941,473.215z"
				/>
			<path d="M498.088,126.274c-3.685-4.629-9.27-7.324-15.179-7.324H143.326l-17.629-89.095c-1.545-7.803-7.699-13.873-15.528-15.308
				L32.594,0.325C22.038-1.621,11.953,5.368,10.02,15.905s5.042,20.641,15.58,22.574l64.607,11.843l56.914,287.667
				c1.797,9.083,9.768,15.631,19.025,15.631h271.512c9.031,0,16.86-6.225,18.896-15.037l45.252-195.876
				C503.137,136.947,501.767,130.896,498.088,126.274z M422.233,314.833H182.074l-31.075-157.089h307.519L422.233,314.833z"/>
		</g>
	</g>
</g>
<g>
</g>
<g>
</g>
<g>
</g>
<g>
</g>
<g>
</g>
<g>
</g>
<g>
</g>
<g>
</g>
<g>
</g>
<g>
</g>
<g>
</g>
<g>
</g>
<g>
</g>
<g>
</g>
<g>
</g>
</svg>
