<?xml version="1.0" encoding="iso-8859-1"?>
<!-- Generator: Adobe Illustrator 19.0.0, SVG Export Plug-In . SVG Version: 6.00 Build 0)  -->
<svg version="1.1" id="Layer_1"
	xmlns="http://www.w3.org/2000/svg"
	xmlns:xlink="http://www.w3.org/1999/xlink" x="0px" y="0px"
	 viewBox="0 0 512 512" style="enable-background:new 0 0 512 512;" xml:space="preserve">
	<path style="fill:#8ADB53;" d="M232.81,371.807H24.575L0,18.668h257.385L232.81,371.807z"/>
	<g>
		<path style="fill:#4FC16E;" d="M232.81,371.807H128.692V18.668h128.692L232.81,371.807z"/>
		<path style="fill:#4FC16E;" d="M233.85,493.332H23.535V359.455H233.85V493.332z"/>
	</g>
	<path style="fill:#369151;" d="M233.85,493.332H128.692V359.455H233.85V493.332z"/>
	<path style="fill:#FFFFFF;" d="M175.019,426.412c-5.255-20.684-24.031-36.03-46.327-36.03s-41.071,15.346-46.327,36.03h-58.83
	v30.956H233.85v-30.956H175.019z M128.692,421.338c4.708,0,8.966,1.948,12.025,5.074h-24.051
	C119.726,423.286,123.984,421.338,128.692,421.338z"/>
	<g>
		<path style="fill:#EBEBEC;" d="M233.85,426.412h-58.831c-5.255-20.684-24.031-36.03-46.327-36.03v30.956
		c4.708,0,8.966,1.948,12.025,5.074h-12.025v30.956H233.85V426.412z"/>
		<path style="fill:#EBEBEC;" d="M375.64,175.442c0,34.149-63.366,55.36-63.366,80.238v22.179H457.11V255.68
		C457.11,193.96,375.64,175.442,375.64,175.442z"/>
	</g>
	<path style="fill:#CACACD;" d="M384.692,277.86h72.418v-22.18c0-48.925-51.193-70.704-72.418-77.631
	C384.692,185.924,384.692,277.86,384.692,277.86z"/>
	<rect x="296.7" y="255.68" style="fill:#FBDA35;" width="175.97" height="59.38"/>
	<rect x="384.69" y="255.68" style="fill:#F7BA35;" width="87.987" height="59.38"/>
	<path style="fill:#FDE888;" d="M512,493.332H257.385V331.269c0-17.248,13.982-31.23,31.23-31.23H480.77
	c17.248,0,31.23,13.982,31.23,31.23V493.332z"/>
	<path style="fill:#FBDA35;" d="M512,493.332H384.692c0,0,0-182.336,0-193.293h96.078c17.248,0,31.23,13.982,31.23,31.23V493.332z"/>
	<rect x="306.08" y="353.26" style="fill:#FFFFFF;" width="157.21" height="100.47"/>
	<rect x="384.69" y="353.26" style="fill:#EBEBEC;" width="78.61" height="100.47"/>
	<g></g>
	<g></g>
	<g></g>
	<g></g>
	<g></g>
	<g></g>
	<g></g>
	<g></g>
	<g></g>
	<g></g>
	<g></g>
	<g></g>
	<g></g>
	<g></g>
	<g></g>
</svg>
