<svg id="Layer_1" enable-background="new 0 0 256 256" height="512" viewBox="0 0 256 256" width="512"
	xmlns="http://www.w3.org/2000/svg">
	<g>
		<g>
			<g>
				<g>
					<g>
						<path d="m64.028 39.045h20.645v57.521h-20.645z" fill="#a4c9ff"/>
					</g>
				</g>
			</g>
		</g>
		<g>
			<g>
				<g>
					<g>
						<path d="m123.447 27.246h-84.494c-3.258 0-5.9 2.641-5.9 5.9 0 3.258 2.641 5.9 5.9 5.9h66.739v8.481c0 1.105.895 2 2 2h17.755c1.105 0 2-.895 2-2v-8.481-3.9-3.9c0-2.209-1.791-4-4-4z" fill="#e0ebfc"/>
					</g>
				</g>
			</g>
		</g>
		<g>
			<g>
				<g>
					<g>
						<path d="m84.673 98.566h-20.645c-1.104 0-2-.896-2-2v-57.521c0-1.104.896-2 2-2h20.645c1.104 0 2 .896 2 2v57.521c0 1.105-.895 2-2 2zm-18.645-4h16.645v-53.521h-16.645z" fill="#3762cc"/>
					</g>
				</g>
			</g>
		</g>
		<g>
			<g>
				<g>
					<g>
						<path d="m125.447 51.526h-17.754c-2.206 0-4-1.794-4-4v-6.481h-64.74c-4.356 0-7.899-3.543-7.899-7.899s3.543-7.899 7.899-7.899h84.494c3.309 0 6 2.691 6 6v16.28c0 2.205-1.795 3.999-4 3.999zm-86.494-22.279c-2.15 0-3.899 1.75-3.899 3.899s1.75 3.899 3.899 3.899h66.739c1.104 0 2 .896 2 2v8.481h17.754v-16.28c0-1.103-.897-2-2-2h-84.493z" fill="#3762cc"/>
					</g>
				</g>
			</g>
		</g>
		<g>
			<g>
				<g>
					<g>
						<path d="m91.815 132.333h-34.928c-1.657 0-3-1.343-3-3v-62.214c0-1.657 1.343-3 3-3h34.928c1.657 0 3 1.343 3 3v62.214c0 1.656-1.343 3-3 3z" fill="#4671c6"/>
					</g>
				</g>
			</g>
		</g>
		<g>
			<g>
				<g>
					<g>
						<path d="m91.815 134.333h-34.928c-2.757 0-5-2.243-5-5v-62.214c0-2.757 2.243-5 5-5h34.928c2.757 0 5 2.243 5 5v62.214c0 2.756-2.243 5-5 5zm-34.928-68.214c-.551 0-1 .449-1 1v62.214c0 .551.449 1 1 1h34.928c.551 0 1-.449 1-1v-62.214c0-.551-.449-1-1-1z" fill="#3762cc"/>
					</g>
				</g>
			</g>
		</g>
		<g>
			<g>
				<g>
					<g>
						<path d="m117.474 81.08h-86.246c-2.856 0-5.444 1.684-6.6 4.296-10.843 24.489-16.444 50.975-16.444 77.757v58.402c0 3.987 3.232 7.218 7.218 7.218h117.898c3.987 0 7.218-3.232 7.218-7.218v-58.402c0-26.782-5.601-53.268-16.444-77.757-1.157-2.612-3.744-4.296-6.6-4.296z" fill="#6bdddd"/>
					</g>
				</g>
			</g>
		</g>
		<g>
			<g>
				<g>
					<g>
						<path d="m8.183 163.133v29.98h132.335v-29.98c0-8.858-.626-17.681-1.838-26.413h-128.658c-1.213 8.732-1.839 17.556-1.839 26.413z" fill="#e0ebfc"/>
					</g>
				</g>
			</g>
		</g>
		<g>
			<g>
				<g>
					<g>
						<path d="m93.429 157.945h-12.106v-12.107c0-1.245-1.009-2.253-2.253-2.253h-9.437c-1.244 0-2.253 1.009-2.253 2.253v12.107h-12.108c-1.244 0-2.253 1.009-2.253 2.253v9.437c0 1.244 1.009 2.253 2.253 2.253h12.107v12.107c0 1.245 1.009 2.253 2.253 2.253h9.437c1.244 0 2.253-1.009 2.253-2.253v-12.107h12.107c1.245 0 2.253-1.009 2.253-2.253v-9.437c.001-1.244-1.008-2.253-2.253-2.253z" fill="#f9a7a7"/>
					</g>
				</g>
			</g>
		</g>
		<g>
			<g>
				<g>
					<g>
						<path d="m133.3 230.753h-117.899c-5.083 0-9.218-4.135-9.218-9.218v-58.402c0-27.232 5.59-53.666 16.616-78.567 1.476-3.333 4.785-5.486 8.429-5.486h86.246c3.645 0 6.954 2.153 8.429 5.486 11.025 24.9 16.616 51.334 16.616 78.567v58.402c-.001 5.083-4.136 9.218-9.219 9.218zm-102.072-147.673c-2.063 0-3.937 1.219-4.772 3.106-10.798 24.388-16.273 50.277-16.273 76.947v58.402c0 2.877 2.341 5.218 5.218 5.218h117.899c2.877 0 5.218-2.341 5.218-5.218v-58.402c0-26.671-5.475-52.561-16.273-76.948-.835-1.887-2.708-3.105-4.771-3.105z" fill="#3762cc"/>
					</g>
				</g>
			</g>
		</g>
		<g>
			<g>
				<g>
					<g>
						<path d="m140.518 195.113h-132.335c-1.104 0-2-.896-2-2v-29.98c0-8.833.625-17.812 1.857-26.688.137-.989.983-1.725 1.981-1.725h128.659c.998 0 1.844.736 1.981 1.725 1.232 8.876 1.857 17.855 1.857 26.688v29.98c0 1.105-.895 2-2 2zm-130.335-4h128.335v-27.98c0-8.078-.534-16.282-1.588-24.413h-125.159c-1.054 8.131-1.588 16.335-1.588 24.413z" fill="#3762cc"/>
					</g>
				</g>
			</g>
		</g>
		<g>
			<g>
				<g>
					<g>
						<path d="m202.832 228.754h-26.179c-15.273 0-27.654-12.381-27.654-27.654v-113.199c0-15.273 12.381-27.654 27.654-27.654h26.179c15.273 0 27.654 12.381 27.654 27.654v113.198c.001 15.273-12.381 27.655-27.654 27.655z" fill="#e0ebfc"/>
					</g>
				</g>
			</g>
		</g>
		<g>
			<g>
				<g>
					<g>
						<path d="m202.833 214.161h-26.18c-7.202 0-13.062-5.859-13.062-13.062v-113.198c0-7.202 5.859-13.062 13.062-13.062h26.18c7.202 0 13.062 5.859 13.062 13.062v113.198c-.001 7.203-5.86 13.062-13.062 13.062zm-26.18-135.321c-4.997 0-9.062 4.065-9.062 9.062v113.198c0 4.997 4.065 9.062 9.062 9.062h26.18c4.997 0 9.062-4.065 9.062-9.062v-113.199c0-4.997-4.065-9.062-9.062-9.062h-26.18z" fill="#3762cc"/>
					</g>
				</g>
			</g>
		</g>
		<g>
			<g>
				<g>
					<g>
						<path d="m135.555 109.636c-2.404 1.381-3.886 3.942-3.886 6.714v28.15 28.15c0 2.772 1.482 5.333 3.886 6.714l13.444 7.723v-42.587-42.588z" fill="#e0ebfc"/>
					</g>
				</g>
			</g>
		</g>
		<g>
			<g>
				<g>
					<g>
						<path d="m243.931 179.365c2.404-1.381 3.886-3.942 3.886-6.714v-28.151-28.15c0-2.772-1.482-5.333-3.886-6.714l-13.444-7.723v42.587 42.588z" fill="#e0ebfc"/>
					</g>
				</g>
			</g>
		</g>
		<g>
			<g>
				<g>
					<g>
						<path d="m202.833 230.753h-26.18c-16.351 0-29.654-13.303-29.654-29.654v-113.198c0-16.352 13.303-29.654 29.654-29.654h26.18c16.352 0 29.654 13.303 29.654 29.654v113.199c0 16.351-13.303 29.653-29.654 29.653zm-26.18-168.506c-14.146 0-25.654 11.508-25.654 25.654v113.199c0 14.146 11.508 25.654 25.654 25.654h26.18c14.146 0 25.654-11.508 25.654-25.654v-113.199c0-14.146-11.508-25.654-25.654-25.654z" fill="#3762cc"/>
					</g>
				</g>
			</g>
		</g>
		<g>
			<g>
				<g>
					<g>
						<path d="m148.999 189.088c-.344 0-.688-.088-.996-.266l-13.444-7.723c-3.016-1.732-4.89-4.97-4.89-8.449v-56.3c0-3.479 1.874-6.716 4.89-8.449l13.444-7.723c.618-.356 1.38-.354 1.998.003s.998 1.017.998 1.731v85.175c0 .714-.38 1.374-.998 1.731-.31.18-.656.27-1.002.27zm-12.448-77.718c-1.777 1.021-2.882 2.929-2.882 4.98v56.3c0 2.051 1.104 3.959 2.882 4.98l10.448 6.002v-78.264zm-.996-1.734h.01z" fill="#3762cc"/>
					</g>
				</g>
			</g>
		</g>
		<g>
			<g>
				<g>
					<g>
						<path d="m230.487 189.088c-.346 0-.692-.09-1.002-.269-.618-.357-.998-1.017-.998-1.731v-85.175c0-.714.38-1.374.998-1.731.618-.356 1.38-.359 1.998-.003l13.444 7.723c3.017 1.733 4.89 4.97 4.89 8.449v56.3c0 3.479-1.874 6.716-4.89 8.449l-13.444 7.723c-.308.177-.652.265-.996.265zm2-83.72v78.264l10.448-6.002c1.778-1.021 2.882-2.93 2.882-4.98v-56.3c0-2.05-1.104-3.959-2.882-4.98z" fill="#3762cc"/>
					</g>
				</g>
			</g>
		</g>
	</g>
</svg>