<svg height="511pt" viewBox="0 1 511 511.99672" width="511pt"
	xmlns="http://www.w3.org/2000/svg">
	<path d="m196.941406 399.40625-84.855468-84.851562 297.988281-254.558594 42.425781 42.425781zm0 0" fill="#ffcebf"/>
	<path d="m256.5 419.996094h-60c-41.402344 0-75 34.601562-75 76 0 8.398437 6.597656 16 15 16h180c8.398438 0 15-7.601563 15-16 0-41.398438-33.601562-76-75-76zm0 0" fill="#ff637b"/>
	<path d="m331.5 495.996094c0 8.398437-6.601562 16-15 16h-90v-92h30c41.398438 0 75 34.601562 75 76zm0 0" fill="#e63950"/>
	<path d="m437.5 209.996094h-422c-8.402344 0-15 6.601562-15 15 0 134.699218 79.296875 225 196 225h60c116.699219 0 196-90.300782 196-225 0-8.398438-6.601562-15-15-15zm0 0" fill="#ff7cb9"/>
	<path d="m452.5 224.996094c0 134.699218-79.300781 225-196 225h-30v-240h211c8.398438 0 15 6.601562 15 15zm0 0" fill="#fa5e97"/>
	<path d="m132.851562 176.320312c-19.203124 0-38.40625-7.3125-53.027343-21.929687-25.445313-25.457031-43.257813-117.082031-46.566407-135.191406-.894531-4.847657.65625-9.8125 4.144532-13.300781 3.488281-3.484376 8.511718-5.125 13.300781-4.144532 18.105469 3.3125 109.730469 21.121094 135.191406 46.566406 29.222657 29.238282 29.222657 76.832032 0 106.070313-14.621093 14.621094-33.839843 21.929687-53.042969 21.929687zm0 0" fill="#7fe881"/>
	<path d="m271.5 314.996094c0 8.398437-6.601562 15-15 15h-15v15c0 8.398437-6.601562 15-15 15-8.402344 0-15-6.601563-15-15v-15h-15c-8.402344 0-15-6.601563-15-15 0-8.398438 6.597656-15 15-15h15v-15c0-8.398438 6.597656-15 15-15 8.398438 0 15 6.601562 15 15v15h15c8.398438 0 15 6.601562 15 15zm0 0" fill="#fff5f5"/>
	<path d="m169.839844 171.207031c-6.460938-14.191406-15.339844-26.996093-26.367188-38.027343l-21.210937-21.210938c-5.859375-5.859375-5.859375-15.351562 0-21.210938 5.859375-5.859374 15.351562-5.859374 21.210937 0l21.210938 21.210938c13.578125 13.578125 24.503906 29.34375 32.460937 46.816406 3.425781 7.542969.101563 16.4375-7.441406 19.863282-7.347656 3.378906-16.363281.230468-19.863281-7.441407zm0 0" fill="#5bc980"/>
	<path d="m494.921875 17.574219c-23.433594-23.433594-61.421875-23.433594-84.851563 0-23.433593 23.429687-23.433593 61.421875 0 84.851562 23.429688 23.429688 61.417969 23.429688 84.851563 0 23.429687-23.429687 23.429687-61.421875 0-84.851562zm0 0" fill="#ffb99c"/>
	<path d="m271.5 314.996094c0 8.398437-6.601562 15-15 15h-15v15c0 8.398437-6.601562 15-15 15v-90c8.398438 0 15 6.601562 15 15v15h15c8.398438 0 15 6.601562 15 15zm0 0" fill="#efe2dd"/>
</svg>