<?xml version="1.0" encoding="iso-8859-1"?>
<!-- Generator: Adobe Illustrator 19.0.0, SVG Export Plug-In . SVG Version: 6.00 Build 0)  -->
<svg version="1.1" id="Layer_1"
	xmlns="http://www.w3.org/2000/svg"
	xmlns:xlink="http://www.w3.org/1999/xlink" x="0px" y="0px"
	 viewBox="0 0 512 512" style="enable-background:new 0 0 512 512;" xml:space="preserve">
	<circle style="fill:#3E474C;" cx="256" cy="251.757" r="251.757"/>
	<circle style="fill:#46565E;" cx="256" cy="251.757" r="203.669"/>
	<path style="fill:#6A9093;" d="M256,398.851c-81.108,0-147.094-65.985-147.094-147.094S174.892,104.663,256,104.663
	s147.094,65.985,147.094,147.094S337.108,398.851,256,398.851z"/>
	<path style="fill:#C1BDAB;" d="M294.367,341.135c21.051-4.788,36.526-24.239,35.088-47.051
	c-1.41-22.366-19.403-40.559-41.753-42.201c-10.634-0.782-20.554,2.123-28.63,7.557c-1.848,1.242-4.294,1.242-6.142,0
	c-8.077-5.433-17.996-8.338-28.63-7.557c-22.35,1.642-40.343,19.836-41.753,42.201c-1.438,22.812,14.036,42.263,35.088,47.051
	c2.581,0.587,4.422,2.865,4.422,5.513v153.008c0,5.858,4.468,10.75,10.301,11.278C240.143,511.637,248.029,512,256,512
	c7.971,0,15.856-0.362,23.644-1.067c5.834-0.527,10.301-5.421,10.301-11.278V346.647
	C289.945,344.001,291.786,341.722,294.367,341.135z"/>
	<g>
		<path style="fill:#E7E4CD;" d="M287.702,251.882c-10.634-0.782-20.554,2.123-28.631,7.556c-1.848,1.242-4.294,1.242-6.142,0
		c-8.077-5.433-17.996-8.338-28.631-7.556c-18.963,1.394-34.783,14.704-40.006,32.366c16.545,21.477,42.502,35.327,71.708,35.327
		s55.164-13.851,71.708-35.327C322.485,266.587,306.665,253.276,287.702,251.882z"/>
		<path style="fill:#E7E4CD;" d="M219.951,342.276c1.291,1.046,2.105,2.622,2.105,4.371v153.008c0,5.858,4.468,10.75,10.301,11.278
		C240.143,511.637,248.029,512,256,512V378.326C256,358.416,239.86,342.276,219.951,342.276L219.951,342.276z"/>
		<path style="fill:#E7E4CD;" d="M291.031,173.47c-18.157-11.428-42.659-8.723-57.797,8.14
		c-15.077,16.796-15.348,42.596-0.602,59.683c6.967,8.072,16.034,13.034,25.589,14.903c2.185,0.428,3.915,2.158,4.343,4.343
		c1.869,9.554,6.83,18.622,14.902,25.589c16.966,14.643,42.555,14.5,59.366-0.319c17.146-15.113,19.956-39.808,8.457-58.078
		c-1.41-2.24-1.101-5.153,0.772-7.025l114.136-114.136c4.05-4.05,4.431-10.484,0.903-14.997
		c-9.738-12.451-20.582-23.993-32.389-34.477c-4.477-3.976-11.284-3.767-15.518,0.467L298.055,172.7
		C296.184,174.571,293.271,174.88,291.031,173.47z"/>
	</g>
	<g>
		<path style="fill:#C1BDAB;" d="M348.459,251.863c-16.812,14.819-42.4,14.961-59.366,0.318
		c-8.072-6.967-13.033-16.034-14.902-25.589c-0.428-2.185-2.158-3.915-4.343-4.343c-9.554-1.869-18.622-6.83-25.589-14.902
		c-6.466-7.492-10.044-16.666-10.753-26.022c-0.184,0.201-0.373,0.396-0.554,0.601c-14.819,16.812-14.961,42.4-0.319,59.366
		c6.967,8.072,16.034,13.033,25.589,14.902c2.185,0.428,3.915,2.158,4.343,4.343c1.869,9.554,6.83,18.622,14.902,25.589
		c16.966,14.643,42.554,14.5,59.366-0.318c11.228-9.897,16.307-23.903,15.248-37.523C350.95,249.527,349.75,250.725,348.459,251.863
		z"/>
		<path style="fill:#C1BDAB;" d="M344.678,226.347c-0.599-1.961-0.123-4.137,1.383-5.643l114.132-114.132
		c4.06-4.06,4.421-10.506,0.879-15.025c-5.342-6.816-11.02-13.356-16.997-19.608L320.633,195.381
		c-4.347,4.347-2.703,11.623,3.01,13.891C332.277,212.701,339.606,218.708,344.678,226.347z"/>
	</g>
	<g></g>
	<g></g>
	<g></g>
	<g></g>
	<g></g>
	<g></g>
	<g></g>
	<g></g>
	<g></g>
	<g></g>
	<g></g>
	<g></g>
	<g></g>
	<g></g>
	<g></g>
</svg>
